# xmcd
#
# Track frame offsets: 
#        150
#        9264
#        27350
#        47152
#        66669
#        81201
#        100147
#        123069
#        141232
#        163305
#        175405
#        197338
#        214595
#        230149
#        248369
#        268537
#
# Disc length: 3967 seconds
#
# Revision: 4
# Processed by: cddbd v1.5.2PL0 Copyright (c) Steve Scherf et al.
# Submitted via: ExactAudioCopy v0.99pb5
#
DISCID=da0f7d10
DTITLE=Various Artist - ACT 08: Magic Moments 3
DYEAR=2006
DGENRE=Jazz
TTITLE0=Heinz Sauer, Michael Wollny  - Welcome to What You Hear
TTITLE1=Ulf Wakenius, Lars Danielsson, Morten Lund  - Dancing
TTITLE2=Viktoria Lolstoy - From Above
TTITLE3=Colin Steele, Dave Milligan - Don Camillo's Revenge
TTITLE4=Nils Landgren, Joe Sample - Don't Take Your Love to Hollywood
TTITLE5=Peter Apfelbaum, New York Hieroglyphics - Rainbow Sign
TTITLE6=Solveig Slettahjell - What Is This Thing Called Love
TTITLE7=Jonas Knutsson, Johan Norberg - Jämtpelle
TTITLE8=Kevin Hays - You Are My Sunshine
TTITLE9=Albert Mangelsdorff, NDR Bigband - Mood Indigo
TTITLE10=Rigmor Gustafsson, Jacky Terrasson Trio - Windows of the Worl
TTITLE10=d
TTITLE11=Elbtonalpercussion, Christopher Dell - African Blues
TTITLE12=Muriel Zoe - Have a Good Time
TTITLE13=Young Friends, Michael Wollny, Florian Trübsbach - Dein ist m
TTITLE13=ein ganzes Herz
TTITLE14=Jazzindeed, Michael Schiefel - Fahr, fahrn, fahrn auf der Aut
TTITLE14=obahn
TTITLE15=Esbjörn Svensson Trio - The Rube Thing
EXTD=YEAR: 2006
EXTT0=
EXTT1=
EXTT2=
EXTT3=
EXTT4=
EXTT5=
EXTT6=
EXTT7=
EXTT8=
EXTT9=
EXTT10=
EXTT11=
EXTT12=
EXTT13=
EXTT14=
EXTT15=
PLAYORDER=
